{"title":"BigBoss Season 5 - 5 October 2011 HQ XVID ","uid":6723208,"size":702088476,"categoryP":"video","categoryS":"tv_shows","magnet":"?xt=urn:btih:a607cfc3d823b71d2fb4d98720d8d449876c56f7&amp;dn=BigBoss+Season+5+-+5+October+2011+HQ+XVID+&amp;tr=udp%3A%2F%2Ftracker.openbittorrent.com%3A80&amp;tr=udp%3A%2F%2Fopen.demonii.com%3A1337&amp;tr=udp%3A%2F%2Ftracker.coppersurfer.tk%3A6969&amp;tr=udp%3A%2F%2Fexodus.desync.com%3A6969","seeders":0,"leechers":0,"uploader":"sanuhek","files":1,"time":1317857624,"description":"[B][CENTER][IMG]http://img213.imageshack.us/img213/9809/cbtvbanner.gif[/IMG]\n\n[FONT=Century Gothic][SIZE=3][I][B][U]Bigg Boss Season 5 *Day 3* HQ 05 Oct 2011 XviD MP3 Team BollyTv[/U][/B][/I][/SIZE][/FONT]\n\n[CODE]Format                           : AVI\nFormat/Info                      : Audio Video Interleave\nFile size                        : 670 MiB\nDuration                         : 57mn 19s\nOverall bit rate                 : 1 633 Kbps\n\nVideo\nID                               : 0\nFormat                           : MPEG-4 Visual\nFormat profile                   : Advanced Simple@L5\nFormat settings, BVOP            : No\nFormat settings, QPel            : No\nFormat settings, GMC             : No warppoints\nFormat settings, Matrix          : Default (MPEG)\nCodec ID                         : XVID\nCodec ID/Hint                    : XviD\nDuration                         : 57mn 19s\nBit rate                         : 1 497 Kbps\nWidth                            : 512 pixels\nHeight                           : 384 pixels\nDisplay aspect ratio             : 4:3\nFrame rate                       : 25.000 fps\nColor space                      : YUV\nChroma subsampling               : 4:2:0\nBit depth                        : 8 bits\nScan type                        : Progressive\nBits/(Pixel*Frame)               : 0.305\nStream size                      : 614 MiB (92%)\nWriting library                  : XviD 1.2.1 (UTC 2008-12-04)\n\nAudio\nID                               : 1\nFormat                           : MPEG Audio\nFormat version                   : Version 1\nFormat profile                   : Layer 3\nCodec ID                         : 55\nCodec ID/Hint                    : MP3\nDuration                         : 57mn 19s\nBit rate mode                    : Constant\nBit rate                         : 128 Kbps\nChannel(s)                       : 2 channels\nSampling rate                    : 44.1 KHz\nStream size                      : 52.5 MiB (8%)\nAlignment                        : Split accross interleaves\nInterleave, duration             : 80 ms (2.00 video frames)\n\n[/CODE]\n\n[URL=http://www.freeimgsharing.com/][IMG]http://www.freeimgsharing.com/images/79310453495403597046.jpg[/IMG][/URL]\n    \n\n[FONT=Comic Sans MS][SIZE=4][B][I]Super Seeding Started!!!!!!!!!!!:bash::bash::bash::yahoo::yahoo::yahoo::yahoo::fly::fly::fly::fly::fly:[/I][/B][/SIZE][/FONT]\n[/CENTER][/B]","torrent":{"xt":"urn:btih:a607cfc3d823b71d2fb4d98720d8d449876c56f7","amp;dn":"BigBoss+Season+5+-+5+October+2011+HQ+XVID+","amp;tr":["udp%3A%2F%2Ftracker.openbittorrent.com%3A80","udp%3A%2F%2Fopen.demonii.com%3A1337","udp%3A%2F%2Ftracker.coppersurfer.tk%3A6969","udp%3A%2F%2Fexodus.desync.com%3A6969"],"infoHash":"a607cfc3d823b71d2fb4d98720d8d449876c56f7","infoHashBuffer":{"type":"Buffer","data":[166,7,207,195,216,35,183,29,47,180,217,135,32,216,212,73,135,108,86,247]},"announce":[],"urlList":[]}}